<mxfile host="app.diagrams.net" modified="2023-11-18T07:58:36.909Z" agent="Mozilla/5.0 (Macintosh; Intel Mac OS X 10_15_7) AppleWebKit/537.36 (KHTML, like Gecko) Chrome/116.0.0.0 Safari/537.36" etag="xrnkyNMoHRTz6mj7IkpG" version="22.1.3" type="github">
  <diagram name="第 1 页" id="I_CiBrEOC1lFi9Kymtpu">
    <mxGraphModel dx="2314" dy="1150" grid="1" gridSize="10" guides="1" tooltips="1" connect="1" arrows="1" fold="1" page="1" pageScale="1" pageWidth="827" pageHeight="1169" math="0" shadow="0">
      <root>
        <mxCell id="0" />
        <mxCell id="1" parent="0" />
        <mxCell id="NjjN-hI9MORs_WGNS3X4-1" value="" style="rounded=0;whiteSpace=wrap;html=1;" parent="1" vertex="1">
          <mxGeometry x="750" y="710" width="120" height="60" as="geometry" />
        </mxCell>
        <mxCell id="NjjN-hI9MORs_WGNS3X4-2" value="题库服务" style="rounded=0;whiteSpace=wrap;html=1;" parent="1" vertex="1">
          <mxGeometry x="290" y="710" width="360" height="60" as="geometry" />
        </mxCell>
        <mxCell id="NjjN-hI9MORs_WGNS3X4-3" value="mysql （写）" style="rounded=0;whiteSpace=wrap;html=1;" parent="1" vertex="1">
          <mxGeometry x="310" y="910" width="120" height="60" as="geometry" />
        </mxCell>
        <mxCell id="NjjN-hI9MORs_WGNS3X4-4" value="crm后台" style="rounded=0;whiteSpace=wrap;html=1;" parent="1" vertex="1">
          <mxGeometry x="280" y="440" width="120" height="60" as="geometry" />
        </mxCell>
        <mxCell id="NjjN-hI9MORs_WGNS3X4-5" value="mysql（读）" style="rounded=0;whiteSpace=wrap;html=1;" parent="1" vertex="1">
          <mxGeometry x="500" y="910" width="120" height="60" as="geometry" />
        </mxCell>
        <mxCell id="NjjN-hI9MORs_WGNS3X4-6" value="教研系统" style="rounded=0;whiteSpace=wrap;html=1;" parent="1" vertex="1">
          <mxGeometry x="530" y="440" width="120" height="60" as="geometry" />
        </mxCell>
        <mxCell id="NjjN-hI9MORs_WGNS3X4-7" value="教研系统" style="rounded=0;whiteSpace=wrap;html=1;" parent="1" vertex="1">
          <mxGeometry x="650" y="440" width="120" height="60" as="geometry" />
        </mxCell>
      </root>
    </mxGraphModel>
  </diagram>
</mxfile>
